<svg xmlns="http://www.w3.org/2000/svg" viewBox="0 0 700 520" width="700" height="520">
  <defs>
    <style>
      @import url('https://fonts.googleapis.com/css2?family=Inter:wght@400;600;700&amp;display=swap');
      text { font-family: 'Inter', 'Segoe UI', system-ui, sans-serif; }
      .title { font-size: 22px; font-weight: 700; fill: #1a1a1a; }
      .subtitle { font-size: 13px; font-weight: 400; fill: #666; }
      .header { font-size: 12px; font-weight: 600; fill: #fff; }
      .cell { font-size: 11px; fill: #333; }
      .cell-bold { font-size: 11px; font-weight: 600; fill: #1a1a1a; }
      .section { font-size: 14px; font-weight: 600; fill: #8B6914; }
      .note { font-size: 10px; fill: #888; }
      .block-label { font-size: 11px; font-weight: 600; fill: #fff; text-anchor: middle; }
      .block-sub { font-size: 9px; fill: #ddd; text-anchor: middle; }
      .wire-label { font-size: 9px; fill: #666; }
    </style>
  </defs>
  <rect width="700" height="520" fill="#FAFAF5" rx="8"/>
  <text x="350" y="35" class="title" text-anchor="middle">Yamaha MT-07 — Electrical System Overview</text>
  <text x="350" y="55" class="subtitle" text-anchor="middle">Simplified block diagram — not a full service manual schematic</text>
  <rect x="40" y="180" width="110" height="50" rx="6" fill="#C0392B" stroke="#333" stroke-width="1.5"/>
  <text x="95" y="202" class="block-label">Battery</text>
  <text x="95" y="217" class="block-sub">12V</text>
  <rect x="40" y="280" width="110" height="45" rx="6" fill="#7F8C8D" stroke="#333" stroke-width="1.5"/>
  <text x="95" y="306.5" class="block-label">Starter Motor</text>
  <rect x="40" y="370" width="110" height="40" rx="6" fill="#95A5A6" stroke="#333" stroke-width="1.5"/>
  <text x="95" y="394" class="block-label">Starter Relay</text>
  <rect x="200" y="80" width="120" height="40" rx="6" fill="#2C3E50" stroke="#333" stroke-width="1.5"/>
  <text x="260" y="97" class="block-label">Ignition Switch</text>
  <text x="260" y="112" class="block-sub">Kill Switch</text>
  <rect x="200" y="180" width="120" height="50" rx="6" fill="#E67E22" stroke="#333" stroke-width="1.5"/>
  <text x="260" y="202" class="block-label">Fuse Box</text>
  <text x="260" y="217" class="block-sub">Main + Aux</text>
  <rect x="200" y="280" width="120" height="50" rx="6" fill="#2980B9" stroke="#333" stroke-width="1.5"/>
  <text x="260" y="302" class="block-label">ECU</text>
  <text x="260" y="317" class="block-sub">Engine Mgmt</text>
  <rect x="380" y="80" width="120" height="40" rx="6" fill="#27AE60" stroke="#333" stroke-width="1.5"/>
  <text x="440" y="97" class="block-label">Stator</text>
  <text x="440" y="112" class="block-sub">AC Generator</text>
  <rect x="380" y="150" width="120" height="40" rx="6" fill="#27AE60" stroke="#333" stroke-width="1.5"/>
  <text x="440" y="167" class="block-label">Reg/Rectifier</text>
  <text x="440" y="182" class="block-sub">AC → DC</text>
  <rect x="380" y="230" width="120" height="45" rx="6" fill="#8E44AD" stroke="#333" stroke-width="1.5"/>
  <text x="440" y="256.5" class="block-label">Ignition Coils</text>
  <rect x="380" y="310" width="120" height="40" rx="6" fill="#8E44AD" stroke="#333" stroke-width="1.5"/>
  <text x="440" y="334" class="block-label">Spark Plugs</text>
  <rect x="380" y="390" width="120" height="45" rx="6" fill="#D35400" stroke="#333" stroke-width="1.5"/>
  <text x="440" y="409.5" class="block-label">Fuel Injectors</text>
  <text x="440" y="424.5" class="block-sub">EFI</text>
  <rect x="540" y="390" width="120" height="45" rx="6" fill="#D35400" stroke="#333" stroke-width="1.5"/>
  <text x="600" y="416.5" class="block-label">Fuel Pump</text>
  <rect x="540" y="80" width="120" height="40" rx="6" fill="#F1C40F" stroke="#333" stroke-width="1.5"/>
  <text x="600" y="104" class="block-label">Headlight</text>
  <rect x="540" y="150" width="120" height="40" rx="6" fill="#F1C40F" stroke="#333" stroke-width="1.5"/>
  <text x="600" y="174" class="block-label">Tail / Brake</text>
  <rect x="540" y="220" width="120" height="40" rx="6" fill="#F1C40F" stroke="#333" stroke-width="1.5"/>
  <text x="600" y="244" class="block-label">Turn Signals</text>
  <rect x="540" y="300" width="120" height="45" rx="6" fill="#1ABC9C" stroke="#333" stroke-width="1.5"/>
  <text x="600" y="319.5" class="block-label">Instrument</text>
  <text x="600" y="334.5" class="block-sub">Cluster</text>
  <line x1="150" y1="195" x2="200" y2="195" stroke="#C0392B" stroke-width="1.5"/>
  <text x="180" y="191" class="wire-label">+12V</text>
  <line x1="150" y1="215" x2="150" y2="280" stroke="#555" stroke-width="1.5"/>
  <line x1="150" y1="280" x2="150" y2="302" stroke="#555" stroke-width="1.5"/>
  <line x1="95" y1="230" x2="95" y2="280" stroke="#555" stroke-width="1.5"/>
  <line x1="95" y1="325" x2="95" y2="370" stroke="#555" stroke-width="1.5"/>
  <line x1="260" y1="120" x2="260" y2="180" stroke="#2C3E50" stroke-width="1.5"/>
  <line x1="260" y1="230" x2="260" y2="280" stroke="#E67E22" stroke-width="1.5"/>
  <line x1="440" y1="120" x2="440" y2="150" stroke="#27AE60" stroke-width="1.5"/>
  <text x="445" y="131" class="wire-label">AC</text>
  <line x1="380" y1="170" x2="320" y2="195" stroke="#27AE60" stroke-width="1.5"/>
  <text x="355" y="178.5" class="wire-label">DC</text>
  <line x1="320" y1="305" x2="380" y2="252" stroke="#2980B9" stroke-width="1.5"/>
  <line x1="440" y1="275" x2="440" y2="310" stroke="#8E44AD" stroke-width="1.5"/>
  <line x1="320" y1="305" x2="380" y2="412" stroke="#D35400" stroke-width="1.5"/>
  <line x1="500" y1="412" x2="540" y2="412" stroke="#D35400" stroke-width="1.5"/>
  <line x1="320" y1="195" x2="540" y2="100" stroke="#F1C40F" stroke-width="1.5"/>
  <line x1="320" y1="205" x2="540" y2="170" stroke="#F1C40F" stroke-width="1.5"/>
  <line x1="320" y1="210" x2="540" y2="240" stroke="#F1C40F" stroke-width="1.5"/>
  <line x1="320" y1="215" x2="540" y2="322" stroke="#1ABC9C" stroke-width="1.5"/>
  <text x="350" y="510" class="note" text-anchor="middle">CrankDoc Reference — Simplified overview, consult service manual for full wiring</text>
</svg>